<mxfile host="app.diagrams.net" modified="2023-04-15T16:09:29.453Z" agent="Mozilla/5.0 (Windows NT 10.0; Win64; x64) AppleWebKit/537.36 (KHTML, like Gecko) Chrome/112.0.0.0 Safari/537.36" version="21.1.8" etag="SwqU1G4NrKxuXJTSMESV" type="github">
  <diagram name="Halaman-1" id="GZLVP9fHWKQ3Ewg4x7ZH">
    <mxGraphModel>
      <root>
        <mxCell id="0" />
        <mxCell id="1" parent="0" />
      </root>
    </mxGraphModel>
  </diagram>
</mxfile>
